<?xml version="1.0" encoding="utf-8"?>
<!-- Generator: Adobe Illustrator 23.0.2, SVG Export Plug-In . SVG Version: 6.00 Build 0)  -->
<svg version="1.1" id="Layer_1" xmlns="http://www.w3.org/2000/svg" xmlns:xlink="http://www.w3.org/1999/xlink" x="0px" y="0px"
	 viewBox="0 0 150.3 150.3" style="enable-background:new 0 0 150.3 150.3;" xml:space="preserve">
<style type="text/css">
	.st0{fill:none;}
	.st1{fill:#FFFFFF;}
</style>
<g>
	<g>
		<path class="st0" d="M41.1,125.7C11.3,104.9,2.5,66,21.6,38.8s58.6-32.4,88.4-11.6s38.5,59.7,19.5,86.9S70.9,146.5,41.1,125.7z"/>
		<g>
			<g>
				<g>
					<path class="st1" d="M49.6,130.8c-0.2-0.1-0.5-0.2-0.7-0.3C49.5,130.9,49.8,131.1,49.6,130.8z"/>
					<path class="st1" d="M40.8,126.1c2.1,1.5,5.6,3.7,8.1,4.5c-0.5-0.3-1.2-0.7-2-1.2c-0.8-0.5-1.6-1.1-2.4-1.6
						C43,126.7,41.5,125.9,40.8,126.1z"/>
					<path class="st1" d="M50.8,129.5c-1-0.4-1.9-0.8-2.9-1.2C49.4,129.4,49.3,128.8,50.8,129.5z"/>
					<path class="st1" d="M49.3,129.8l0,0.4c0.6,0.2,1.1,0.3,1.7,0.4C50.4,130.4,49.9,130.1,49.3,129.8z"/>
					<path class="st1" d="M130,42.9c0.3,0.2,0.6,0.3,0.7,0L130,42.9z"/>
					<path class="st1" d="M123.9,38c-0.5-0.5-0.8-0.8-1.1-1.1C123.1,37.2,123.4,37.5,123.9,38z"/>
					<path class="st1" d="M133.6,48.9l-0.6-1.2C133.2,48.1,133.4,48.5,133.6,48.9z"/>
					<path class="st1" d="M120.2,126.3c-0.8,1-1.6,1.9-2.2,2.6C120.2,127.7,119.9,127,120.2,126.3z"/>
					<path class="st1" d="M93.6,23.5l-0.2-0.4C93.1,23.1,92.9,23.2,93.6,23.5z"/>
					<path class="st1" d="M118.8,40.2c0.2-0.1,0.2-0.2,0.2-0.4c-0.1-0.1-0.2-0.1-0.3-0.2L118.8,40.2z"/>
					<path class="st1" d="M135.6,54C135.5,54.1,135.6,54.1,135.6,54l0.6,1C136,54.5,135.8,54.2,135.6,54z"/>
					<path class="st1" d="M84.2,21c-0.5,0.1-0.9,0.2-1.3,0.4C83.9,21.5,84.3,21.3,84.2,21z"/>
					<path class="st1" d="M122.6,36.7C122.6,36.7,122.6,36.7,122.6,36.7c0,0,0.1,0.1,0.1,0.1C122.7,36.8,122.7,36.8,122.6,36.7z"/>
					<path class="st1" d="M125.3,47.9c-0.3-0.4-0.7-0.8-1.1-1.2C124.6,47.3,125,47.7,125.3,47.9z"/>
					<path class="st1" d="M120.2,126.3l0.6-0.9C120.5,125.7,120.3,126,120.2,126.3z"/>
					<path class="st1" d="M57.3,134.9c1,0.4,1.3,0.2,1.5,0.1C58.2,134.9,57.7,134.9,57.3,134.9z"/>
					<path class="st1" d="M37.8,125.9l0.3,0.2C38,126,37.9,125.9,37.8,125.9z"/>
					<path class="st1" d="M12.7,94c-0.1-0.2-0.3-0.3-0.4-0.4C12.4,93.9,12.6,94.1,12.7,94z"/>
					<path class="st1" d="M17.9,58.2c-0.6,1.1-0.6,2.3-0.7,3.5c0,1.2,0.1,2.3,0,3.3c-0.1-0.2-0.2-0.5-0.3-0.7c0,0.7,0.1,1.4,0.1,2.1
						l-0.6-0.1c0,1.7-0.2,3.7-0.2,5.3c0,1.7,0.2,3.1,0.7,3.6L16,75c0.3,1.2,0.7,2.4,1.1,3.6c-0.3-0.7-0.6-1.3-0.8-2
						c0.1,2.1,0.6,4.7,1.2,6.8c0.3,1.1,0.7,2,0.9,2.7c0.3,0.7,0.5,1.3,0.5,1.5l-0.4-0.3c0,0.7,0.4,1.2,0.7,1.8l-0.6-0.4
						c1,3,1.6,4.9,2.3,6.9c0.3,1,0.7,2,1.3,3.2c0.5,1.1,1.3,2.4,2.3,3.9c0.9,1.7-0.7-0.8-0.9-0.7c0.2,1.2,1.9,3,2.4,3.4
						c-1,0-2.4-2.7-1.7-0.4c1.2,1.2-1.2-0.5,0.5,1.8l1.5,0.4c0.8,1.4-0.5,0.8,1.2,2.7c2.1,2-1.3-3.5,1.7,0.1
						c0.7,0.9,1.1,2.2,1.7,3.7c0.3,0.7,0.7,1.5,1.3,2.3c0.6,0.8,1.3,1.5,2.2,2.2c2.6,3.1-2.7-0.3,1.7,3.3c-1-0.6-2.1-1.2-3.1-1.9
						c0.5,0.9-0.3,0.8,1.7,2.3c0.8,0.2,2.3,0.8,3.4,1.6c-2.3-1.4-1.6-0.4-0.8,0.6c0.4,0.5,0.8,1,0.8,1.3c0,0.2-0.4,0.2-1.5-0.4
						c0.5,0.4,1,0.8,1.5,1.1c-0.2-0.1-0.3-0.1-0.3,0.1l2,1.5c-0.7-0.4-1.8-1.1-2.6-1.5c-0.8-0.4-1.3-0.6-0.9,0.2
						c0.9,0.8,1.9,1.6,2.9,2.4c-1.1-0.1-0.2,0.9-0.6,1.1c-3.2-1.8-6.4-3.9-9.4-6.2c0.5,0.1,1.9,1,1.7,0.3c-1-1.1-1.5-1.4-2-1.7
						c-0.5-0.3-1-0.6-1.8-1.8c0.4,0.2,0.8,0.4,1.2,0.6c-0.3,0-0.6-0.3-0.2,0.2c0.5,0.9,1,0.9,1.2,0.7c-0.1-0.5-0.8-1.2-1.5-1.8
						c-0.7-0.6-1.4-1.2-1.9-1.3c-2.3-2.7,0.3-1.2-0.1-1.9c-1.9-0.8-3.8-4.6-5.4-6.2l1.3,0.8c-1-2.6-2.8-4.3-3.8-5.5l0.7,0.3
						c-1-1.6-1.3-3-1.7-4.2c-0.2-0.6-0.5-1.2-0.8-1.7c-0.3-0.5-0.8-1-1.5-1.5l0.5,0.2c-0.5-1.5-1-3.7-2-4.9c0.2-0.1,0.3-0.4,0.2-1
						c-0.5-0.3-0.7-0.8-0.9-1.6c-0.2-0.8-0.3-1.7-0.6-2.8c0.6,1.4,1.3,0.7,2,2.1c-0.1-3.5-1.8-2.7-2.5-5.5c0.1-0.9,0.2-0.5,0.5,0.1
						c0.3,0.6,0.6,1.5,0.8,1.6c-0.4-1-0.6-2.1-0.6-3.3c0-0.6-0.1-1.1-0.1-1.6c0-0.5,0-1.1,0-1.6c0-0.5,0-1,0-1.5
						c0-0.5,0-0.9-0.1-1.4c-0.1-0.9-0.4-1.7-0.8-2.3c-0.2,0.6-0.3,1.3-0.4,1.9c-0.6-1.7-0.6-2.7-0.4-2.5c0,0.6,0.1,0.8,0.3,0.9
						c0.3-2.7-0.1-4.7-0.4-6.8c-0.2-1.1-0.3-2.1-0.3-3.3c0-0.6,0-1.2,0-1.8c0.1-0.6,0.2-1.3,0.3-1.9c0.3,0.5,0.3,1.2,0.5,1.3
						c0.7-2.4-1.4-2.7,0.2-6.6l0.2,0.9c0.6-1.3,0.3-2.4,0.1-2.2c0.7,0.1,1.3-1.9,2.2-4.2c0.4-1.2,1-2.4,1.6-3.4
						c0.6-1,1.3-1.9,2.1-2.2c0-0.5,0.2-1.3,0.4-2.1c0.3-0.8,0.6-1.7,1-2.6c0.8-1.7,1.8-3.3,2.6-3.8c2.2-1.4-0.5,2.3,0.8,2.1
						c1.1-1.5,1-2.8,3.1-4.8c-0.6-0.6-5,3.3-1.8-1.2l0.8-0.3c-0.4,0.4-1,0.9-1.5,1.6c-0.6,1.5,1-0.4,1.5-0.5c1.2-1.5,2.5-3,3.8-4.4
						c-0.2-0.5-0.8-0.1-1.5,0.5c-0.7,0.5-1.3,1.3-1.6,1.3c1.6-1.7,3.8-3.2,5.9-4.6c1.1-0.7,2.1-1.4,3.1-2c1-0.6,1.9-1.4,2.8-2
						l-0.2,0.5c1.1-0.9,1.8-1.3,2.4-1.6c0.6-0.2,1-0.2,1.4-0.2c0.7,0,1.3-0.1,2.9-1.7c2.2-0.8-0.3,1.2,2.8-0.1
						c0.9-0.4,0.2-0.5,0-0.5c1.9-1,2.4-0.9,2.8-0.9c0.5,0,0.8-0.1,2.5-1.1l-0.5,1.2c2.1-1,4.2-2.2,6.3-3.1c1.1-0.5,2.2-0.9,3.2-1.1
						c0.5-0.1,1.1-0.3,1.6-0.3c0.5-0.1,1-0.1,1.6-0.1c-0.1,0.4-0.7,0.6-1.5,0.8c-0.7,0.3-1.6,0.5-2,0.9c2.5-1.1,5.8-1.5,9-1.5
						c3.2-0.1,6.3,0.3,8.9,0.1c-1.5-0.8,2.6-1.2-0.7-2.1c-0.9,0.9-2.4,0.1-4.2,0.2c0.7-0.5,1.9-0.7,3.1-0.6c1.3,0,2.7,0.4,4,0.7
						c2.7,0.7,5,1.5,5.7,0.7l0.6,0.9c0.8,0,2.9,0,1.6-0.6l2.7,1l2.7,1.1c-2.1-0.1-6.4,0-7.5-1c-1.7,0.4,2.1,1,0.5,1.6
						c1.9-0.2,2.5,0.1,3,0.5c0.5,0.4,1,0.9,2.8,1.4c-0.7-0.8,0.4-0.8,1.6-0.7c1.2,0.1,2.5,0.4,2.6,0.1c1.1,0.6,3.9,1.3,5.1,1.5
						c2.2,0.8,6.3,4.1,9.5,5.8c-0.7-0.2-1.5-0.6-2.2-0.7c-0.7-0.2-1.3-0.2-1.4,0.2c1.7,0.5,3.3,1.7,3.1,2.5c-3-1.1-3.1-1.7-3.2-2.4
						c0-0.3-0.1-0.7-0.4-1.1c-0.3-0.4-1-0.8-2.4-1.3c-1.6,0.1-3.1-0.4-5.8-1.3c1,1,0.4,1,0.6,1.8c1-0.1,2,0.1,3,0.5
						c1,0.4,2,0.9,3.1,1.6c2,1.3,4,2.8,6.2,3.7c0.9,0.3,1.3,0.1,1.9,0c0.6-0.1,1.4,0.1,3.2,1.4c-0.9-1-1.7-1.9-2.7-2.8
						c1.6,1.5,1.8,1.5,2.1,1.5c0.3-0.1,0.5-0.3,2,0.7l-1.5-0.4c1.6,1.4,2.2,1.9,3.4,2.4l-2-0.5c0.8,0.9,2.3,2.3,2.7,2
						c0.1,0.4,0,0.6-0.1,0.7c0.3,0,0.7,0.3,1.7,1.3c-0.6-0.5-1-0.9-1.2-0.7c1.9,1.7,1.9,2.1,1.8,2.4c-0.2,0.2-0.5,0.3,0.6,1.4
						c-0.5-0.2-0.1,0.6,0.6,1.5c0.5-0.5,1.9,0.3,3.3,1.5c0.7,0.6,1.4,1.2,2,1.8c0.6,0.6,1.2,1.1,1.6,1.3l0,0c1,1.1,1.9,2.2,2.9,3.3
						c-0.6-0.7-0.4,0.3,0.1,1.5l-0.1-0.2c0.5,1.3-2.2-0.6,0.2,2.7l1.4,1.7c-0.2-0.3-0.3,0.1-0.3,0.3c0.5,0.6,0.9,1.2,1.3,1.8
						c0.1,1.8,0.8,3.2,1.7,4.7c0.8,1.5,1.8,3,2,5.1c-0.2-1.1-0.8-2.8-1-1.9c0.1,0.8,0.5,1.9,0.9,2.4l-0.2-0.1
						c0.5,1.2,0.9,2.4,1.4,3.6c0.4,1.2,0.8,2.4,1.2,3.7c-0.6-0.5-1.5-4.7-1.7-2.7c-0.2,0.6-0.1,1.4,0.2,2.2c0.2,0.8,0.6,1.7,0.7,2.3
						c0.4-0.2,0.3-2.8,0.9-0.3c-0.1,0.3-0.3,2.8-0.7,1.7c0.7,2.5,1.1,6.3,1.8,8.7c-0.2,0.7-0.3-0.4-0.4-0.8l0.1-0.2
						c-0.2-1.6-1-0.2-0.7-3.4c-1.3-0.2-0.2,4.4-0.6,7.2c-0.2-1.5-0.4-2.9-0.7-4.3c-0.9,3.6-1.2,7.6-1.8,11.8
						c-0.6,4.1-1.4,8.3-2.9,11.5c0.6-0.9,1-1.8,1.3-2.4c0.3-0.6,0.6-0.9,1-0.6c-0.5,2.2-0.9,3.1-1.3,4c-0.4,0.9-0.8,1.8-1.7,3.9
						l0.1-0.4c-0.8,0.9-1.4,2.1-2,3.3c-0.6,1.1-1.3,2.1-2.1,2.5c0.1-1.1,2.3-2.5,1.3-3.1l-1.5,2.4c-0.5,0.8-1.1,1.5-1.6,2.3
						c0.5-1.8,3.2-4.6,4.1-6.6c0.8-1.3-1.4,2.8-0.4,2.5c0.7-1.1,1.2-2.1,1.5-2.9c0.3-0.8,0.5-1.5,0.7-2.2c0.3-1.3,0.2-2.3,0.3-3.7
						c-0.1-1.7-1.6,1.7-2.1,2.5c-0.3,3.4-2.4,8-6.1,11.6c-0.8,0.5-1.6,1.1-2.5,1.5c-1.1,2.3,0.7,2.7-2.8,5.8
						c0.2-0.5,0.4-0.9,0.6-1.4c-0.9,0.5-1.5,0.9-1.8,1.2c0.6-0.8,1.2-1.7,1.7-2.6c0.5-0.9,1.1-1.7,1.5-2.5c-0.7,0.3-1.3,0.7-1.9,1.3
						c-0.6,0.6-1.2,1.4-1.8,2.1c-0.6,0.8-1.3,1.6-2,2.4c-0.7,0.8-1.4,1.6-2.1,2.1c0.1-0.2,1.1-1,1.2-1.6c-2.3,1.6-4.6,3.4-6.8,5
						c-1.1,0.9-2.2,1.6-3.3,2.3c-1.1,0.7-2.2,1.3-3.2,1.7c-1,0-0.1-0.3,0.8-0.9c0.9-0.5,1.9-1.1,1.3-1.3c-2,1.2-4.7,1.4-5,2.3
						c0.6-1.4-5.1,1.5-1.2-0.8c-4,1-8.1,2-12.4,2.8c-4.3,0.7-8.6,1.2-12.9,1.1c0.4-0.3,0.5-0.6,0.1-0.8c2.8,0.3,7,0,8.5-0.9
						c-0.9-0.3-2-0.1-2.9,0.2c-0.9,0.2-1.7,0.4-1.9,0.3c0.5-0.1,1.2-0.2,1.8-0.3c0.6-0.1,1-0.3,1.1-0.5c-1.2-0.3-2.1-0.3-2.9-0.1
						c-0.8,0.1-1.6,0.4-2.4,0.3l0.9,0.4c-1.3,0.1-2.2,0.2-2.8,0.4c-0.6,0.1-1,0.3-1.4,0.4c-0.8,0.3-1.7,0.4-4.4-0.3
						c-1.9-1.1,0.1-0.5,0.3-1.4c-0.7,0.1-2-0.4-3.3-0.8c-1.3-0.4-2.7-0.8-3.4-0.5l3.2,0.9c-1.2-0.2-2.3-0.4-3.3-0.6
						c-1-0.3-2-0.5-2.8-0.6c0.2-0.1,0.4-0.3,0.9-0.2c-0.9-0.1-2-0.5-2.9-0.7c-0.9-0.2-1.8-0.4-2.3-0.4l-0.1-1c0.9,0.9,4,2.1,4.7,1.8
						c0-0.9-3.4-1.5-4.7-2.2c1.5,0.6,2.7,0.9,3.7,1.1c1,0.2,1.8,0.3,2.6,0.3c1.5,0.2,2.9,0.4,5.5,1.3l-1,0.1
						c3.2,1.5,6.8,0.9,9.7,1.2c-0.8-0.2-0.9-0.6-0.5-0.7c3.2,0.7,6.4,0.8,9.7,0.6c3.3-0.2,6.7-0.6,10.4-1.2c0.7-0.5,1.3-0.9,1.9-1.4
						l0.3,0.6c3.6-0.7,0.5-1.1,2.7-1.7c-0.8,0.3-0.6,0.3-0.8,0.5c1.9-1,2.4-1.1,2.8-1c0.4,0.1,0.6,0.3,1.7-0.2
						c-0.8,1.1-4.2,1.8-2.9,2.4c0.9-0.5,2-1,3.1-1.6c1.1-0.6,2.2-1.1,3.2-1.7c2-1.1,3.3-2.3,3.2-3.1c3.5-1.6,7-4.2,9.8-7.2
						c2.9-2.9,5.2-6.2,6.9-8.8c0.7-0.6-0.1,0.6,0.3,0.4c0.2-0.7,0.5-1.4,1.1-2.2c0.5-0.8,1-1.6,1.6-2.3c1-1.5,1.8-2.8,1.5-3
						c0.7-1,1.5-1.2,1.8-1.4c0.2-0.8,0.3-1.7,0.6-2.7c0.2-0.9,0.5-1.9,0.7-2.9l-0.2,1.5l0.2-0.1l0.3-2.1l-0.1,0.1
						c0.6-2.5,1.2-5.2,1.4-7.9c0.3-2.7,0.3-5.3-0.2-7.6c0.6,2.7,1-0.7,1.4,0.6c-0.7-1.2-1-3.2-1.4-5.4c-0.3-2.2-0.7-4.8-1.1-7
						c0.3,0,0.4-0.4,0.8,0c-0.3-0.8-0.8-1.7-1.1-2.5l0.4,0.3c-0.4-2.4-1.5-4.7-2.6-6.7c-0.6-1-1.1-2-1.5-2.9c-0.5-0.9-0.8-1.7-1-2.5
						c1,1.7,1.2,1.6,1.7,1.6c-1.5-3.1-3-6-5.6-9.1c0.2,0.1,0.3,0.2,0.4,0.1c-0.5-1-1.5-1.8-2.3-2.6L124,45c-0.8-0.7-1.5-1.7-2.3-2.6
						c-0.8-0.9-1.7-1.9-2.7-2.6c-0.1-0.6-1.2-1.6-2.6-2.6c-0.7-0.5-1.4-1.1-2.2-1.6c-0.7-0.5-1.3-1.1-1.8-1.6
						c-0.9-0.6,2.3,0.9-0.1-1c-0.6,0.4-1.4-0.2-2.2-0.8c-0.8-0.5-1.6-1.1-2.1-0.5c-0.6-0.7-1.2-1.3-1.8-2l-0.9,0.3
						c-0.5-1.3-1.3-1.5-2.3-1.8c-1-0.3-2.2-0.4-3.5-1.4c0.2-0.1,0.6,0,0.5-0.1c-1-0.4-3.3-1.3-1.7-0.1c-1.5-0.9-7.1-2.7-4.4-2.5
						c-0.4,0.4,2,0.9,3.1,1.2c0.2-0.7-2.4-1.5-2.7-2.4c-0.1,0-0.5,0-0.8,0l-0.2-0.5c-3.4-0.5-6.5-1.9-9-1.5
						c-0.1-0.2-0.6-0.5-1.7-0.7l-0.2,0.8c-1.1-0.2-2.3-0.4-3.4-0.6c0.6-0.4,1.2-0.6,1.8-1C76.9,18.7,74,19.9,71,20
						c-0.4-0.7-1.9-0.6-3.7-0.4c-1.8,0.2-3.7,0.6-5.1,0.2l2.4-0.7c-2.6,0.4-4.1,0.5-5.6,0.6c-0.7,0.1-1.5,0.2-2.3,0.3
						c-0.8,0.2-1.8,0.5-2.9,0.9c2.1-0.3,3.1-0.5,4.4-0.6c1.3-0.1,2.8-0.2,5.8,0c-1.5,0-2.9,0.2-4.2,0.4c-1.3,0.3-2.5,0.6-3.7,1
						c-2.4,0.7-4.6,1.7-7.3,2.3c0.2-0.5,1.4-1.1,0-1c-0.4,0.6-1.6,1-2.5,1.5c-0.9,0.5-1.7,0.8-1.1,1.1c-1.6,0.5-2.3,0-3.2,0.4
						c-1.5,1.2-2.9,2.6-4.2,4l0-0.2c-4.5,2-7.7,5.6-10.1,9.3c-2.5,3.8-4.2,7.9-6.4,12.1l-0.3-0.3c-0.1,0.8-0.2,1.7-0.3,2.5
						c0.3-1.9-0.8,0.6-1.3,0.6c-0.1,1-0.3,2.1-0.4,3.1c-0.1,1-0.2,2.1-0.3,3.1C18.2,60.2,17.3,59.7,17.9,58.2z M82.3,20.1l1.5,0.3
						c0.3,0.1,0.6,0.2,0.9,0.2l-0.9-0.2C83.1,20.1,82.6,19.6,82.3,20.1z M113.2,126.2c-0.4,0.7,0.9-0.5,1.4-0.8
						c-0.7,0.5-1.3,1-2,1.5C112.2,126.9,113,126.5,113.2,126.2z M83.5,14.8c-0.3-0.3-0.5-0.5-0.8-0.7l-1.2,0.2L83.5,14.8z
						 M60.3,14.1c0.7-0.2,1.5-0.5,2.3-0.6l-0.2-0.1c-0.8,0.2-1.5,0.4-2.2,0.6L60.3,14.1z M38.7,27c0.1-0.1,0.2-0.2,0.3-0.3
						C38.9,26.8,38.8,26.9,38.7,27c-1.1,1.3-2.3,0.8-2.8,2.4C37.8,29.1,38.1,27.8,38.7,27z M75,18.2c0.7-0.1,1.1-0.1,1.6,0
						c-0.4,0.3-1.9,0.7-0.9,0.9c0.8-0.4,3.2-0.1,3.3-0.7c-1.1,0.2-2-0.2-2.7-0.4C75.7,17.8,75.3,17.6,75,18.2z M120,40.3l-0.3-0.4
						c0.6,0.4,1.1,0.8,1.7,1.2L120,40.3z M126.2,47.4c0.6,0.3,1.3,1,1.9,1.9c0.6,0.9,1.3,2,1.8,2.8c-0.3,0.7-1.9-0.7-3.1-2.7
						C125,47.5,127.2,48.1,126.2,47.4z M58.2,18l0.5-0.6l-0.5,0c0.7-0.3,1.4-0.5,2.1-0.7c-3-0.2-4.8,1.6-6.1,2.1
						c0.6-0.2,1.7-0.8,2.6-1.1C57.7,17.4,58.4,17.3,58.2,18z M135,65.4c0.5,0.9,1.1,2.2,1.6,3.3c0.5,1.1,0.9,1.8,1.1,1.6
						c-0.5,0.2-0.9-0.5-1.3-1.2c-0.4-0.8-0.8-1.7-0.9-2.1C135.4,66.4,135.3,66.1,135,65.4z M136.7,64.8c-1.3-2.8-1.8-2.8-3.4-4.6
						c0.6,2.9,2,3.2,2.4,2.7c1,1.8,0.3,1.6,0.5,2.7L136.7,64.8z M133.2,62.7l-0.3-1.2c-0.1-1.4,0.8-2.1-1-3.5c0.3,1.2,0.7,2.3,1,3.5
						C133,61.9,133,62.3,133.2,62.7z M136.3,86.6c-0.1-0.4-0.1-0.8-0.2-1.2C136,86.5,136.1,86.7,136.3,86.6l0.2,1
						C137.1,85,136.6,86.3,136.3,86.6z M135.1,68.2c-0.3-1.1-0.6-2.2-1-3.3c0.2,0,0.5,0.6,0.6,1.2C134.9,66.8,135,67.6,135.1,68.2z
						 M137.2,85.9c0.1-0.7,0.2-2,0.2-3.1c0-1.1,0-1.9,0-1.6c-0.3,0.2-0.3,1.1-0.4,2.1C137,84.3,137.1,85.4,137.2,85.9z M88.5,137.2
						c0.7-0.1,1.5-0.2,2.2-0.4l-1.2-0.5C89.2,136.6,88.9,136.9,88.5,137.2z M113.2,129.1l-0.7,0l-1.1,0.7L113.2,129.1z M130.4,112.3
						c-0.2,0-0.3-0.1-0.3-0.4c0.2-0.3,0.3-0.7,0.2-0.9c-0.2,0.3-0.2,0.6-0.2,0.9c-0.4,0.9-1.2,2.1-1.8,2.4c0-0.5,0.8-1.7,1-2.3
						c-0.5,0.3-0.8,0.9-1.2,1.6c-0.4,0.6-0.7,1.4-1,1.9c-0.6,1.2-1.2,1.8-1.7,0.6c-0.2,0.4-0.6,1.4-1,2.1c-0.3,0.7-0.5,1.3,0,1
						C125.9,117.3,129,113.7,130.4,112.3c0.2,0,0.4-0.2,0.6-0.5C130.9,111.8,130.6,112,130.4,112.3z M139.7,81.2
						c-0.1-0.9-0.1-1.3-0.2-1.5c-0.2-0.8-0.5-1.4-0.8-1.1c0.4,1.9,0.6,0.7,0.8,1.1C139.6,80.2,139.7,80.7,139.7,81.2z M139.5,75.4
						c0.3,1,0.5,2,0.7,3c-0.2-0.5-0.4-1-0.6-1.5c0.4,1.5,0.8,3,1.1,4.6C141.2,78.8,140.2,75.7,139.5,75.4z M139.9,74.3
						c-0.2-0.2-0.4-0.4-0.6-0.6c0.2,0.3,0.5,0.6,0.7,0.9L139.9,74.3l0.1,0.1c-0.3-1.7-0.7-3.4-1.1-5C139.3,71,139.6,72.7,139.9,74.3
						z M113.8,30.6c-0.1-1.3,0.9-0.9,2.3-0.1c1.3,0.8,2.8,2,3.4,2c-0.1,0.3,0,1-0.3,1.1c-0.3,0.2-1-0.2-2.9-1.9
						c0.7,0.8,1.2,1.3,1.6,1.6c0.4,0.3,0.7,0.4,0.9,0.5c0.5,0.2,0.7,0.3,1,1.8c-0.7-0.8-1.6-1.5-2.3-2c-0.8-0.5-1.4-0.9-1.5-1
						c0.6,0.6,1.2,1.1,1.7,1.7c-0.9-0.1-1.5-0.7-2-1.6C115.2,31.8,114.6,30.9,113.8,30.6z M91.2,17.9c-1-0.3-2-0.6-3.1-0.9
						c1,0.2,2,0.5,2.9,0.7L91.2,17.9z M20.7,39.1c-0.1-0.2-0.9,0.4-1.7,1.3c-0.7,0.9-1.4,2-1.3,2.7c0.6-0.9,1.1-1.8,1.7-2.6
						C20,39.8,20.4,39.2,20.7,39.1z M11.1,71.3c-0.2-1.2-0.2-2.4-0.3-3.6c-0.5,0.3-0.6,1.1-0.5,2.1c0.1,0.9,0.3,2,0.3,2.9
						C11.1,73.2,10.8,71.8,11.1,71.3z M15.5,94.2l0.6,1l-1.4-0.7L15.5,94.2z M13.7,93.2c-0.2,0.9-1.2-1.5-1.4-2
						C12.8,91.8,13.2,92.5,13.7,93.2z M23.3,112.5c-0.3-0.4-0.6-0.8-0.9-1.3c0.5,0.2,1,0.4,1.6,0.6L23.3,112.5z M22.7,109.9
						c-0.4,0-0.7,0.2-1.2,0c-0.5-0.2-1.1-0.9-1.8-2.5c0.5-0.5,1,0.3,1-1.2c0.8,0.9,1,1.8,1.3,2.3c-0.6-0.6-0.8-1.5-1.3-1.5
						C21.2,108.3,22.1,109.4,22.7,109.9c0.3,0,0.5,0,0.9,0.3C23.4,110.3,23.1,110.2,22.7,109.9z M16.9,98.6
						c-0.1-0.5-0.2-0.9-0.2-1.1l-0.2-0.1C16.4,98,16.6,98.3,16.9,98.6c0.1,0.5,0.3,1.1,0.5,1.6c-0.2,0.3-0.6,0-1.1-0.5
						c-0.5-0.5-0.9-1.1-1.2-1.3c0.6,1,1.5,1.6,2,3.2c-0.2-0.1-0.3,0.1-0.7-0.7l0.9,1.9c1.9,1.7,0.9-0.4,0.2-2.5
						c0.1-0.1,0.1-0.3,0.1-0.8C17.4,99.1,17.1,98.9,16.9,98.6z M26.7,111.9l-0.8-0.8c-0.5-0.3-0.5,0.1-0.7,0.1
						C26,112.2,27.4,113.3,26.7,111.9z M16.6,49.1c-0.5,0.6-0.4-1.2,0.5-2.7c-0.4,0.1-0.8,0.3-1.2,0.4c0.5,0.3-0.9,3.3-1,3.7
						C15.5,51.4,15.6,50.1,16.6,49.1z M80.4,15.9c0.4-0.5,1.6-0.4,2.9-0.2c1.2,0.3,2.5,0.6,3,0.6C84.1,15.6,79.1,14.5,80.4,15.9z
						 M87.4,17.9c1.1,0.3,1.4,0.5,1.4-0.1c0.6-0.1,1.4,0.5,2,0.5C88.9,17.1,88.8,18,87.4,17.9c-0.3-0.1-0.6-0.2-1-0.2
						C86.8,17.8,87.2,17.9,87.4,17.9z M43.6,21.6c-0.3,0.5-0.7,0.9-1,1.4L40.5,24C41.5,23.2,42.5,22.4,43.6,21.6z M25,38.5
						c-0.2-0.4-1.9,1.7-2,2.3c-0.4-0.5,0.7-1.9,1.5-3.1c0.1-0.2,0.2-0.4,0.5-0.8c-0.1,0.2-0.3,0.5-0.5,0.8c-0.2,0.5,0.3,0.4,0.4,0.5
						c0.2-0.2,0.4-0.3,0.6-0.5c-0.4,0.5-0.7,1.1-1.1,1.7L25,38.5z M15.4,80c-0.2,1.6,0,1.8,0.4,2.8C15.9,82.4,15.7,81,15.4,80z
						 M34.5,29.5c-2.3,1.4,0.5-1.5-1.1-0.6l1.2-0.8c-2.2,0.9-0.9,1.5-2.2,2.4l0.9-0.6c1-0.1-1,1.4-0.8,1.8c0.5-0.3,1.3-1,1.8-1.6
						C34.7,29.6,35,29.2,34.5,29.5z M16.2,82.4c-0.1,2.7,1.1,2,1.5,3.5C17.7,83.7,16.7,84.3,16.2,82.4z M24.7,42.7l0.2-0.1
						c-0.3,0.6-0.6,1.3-0.8,1.9l-0.2,0.1C24.1,44,24.4,43.4,24.7,42.7z"/>
					<path class="st1" d="M11.1,87c0.1,0.7,0.2,1.2,0.4,1.5C11.4,88.1,11.3,87.5,11.1,87z"/>
					<path class="st1" d="M95.3,16.2c0,0.2,0.2,0.3,0.5,0.5C95.8,16.6,95.7,16.4,95.3,16.2z"/>
					<path class="st1" d="M100.7,18c0.1,0,0.1,0.1,0.2,0.1c0.1,0,0.1,0,0.2,0L100.7,18z"/>
					<path class="st1" d="M58.6,136.2c-1.4,0.3,1.1,0.5,2,0.8C59.7,136.7,59.5,136.1,58.6,136.2z"/>
					<path class="st1" d="M66.1,137c-0.6,0.1-1.4,0.1-2.4-0.1C64.3,137.1,65,137.2,66.1,137z"/>
					<path class="st1" d="M60.2,135.8c1.3,0.6,2.6,0.9,3.6,1.1C62.8,136.6,62.1,136.2,60.2,135.8z"/>
					<path class="st1" d="M86,138.7c-0.6,0.3-1.4,0.4-2.1,0.4c-0.7,0.1-1.3,0-1.3,0c2.5,0.1,2.2,0.3,1.3,0.6
						c-0.9,0.3-2.5,0.4-2.7,0.6C84.3,140.1,84.3,139.5,86,138.7z"/>
					<path class="st1" d="M92.4,137.7c-0.5,0.1-1,0.1-1.3,0.1C91.5,137.8,91.9,137.8,92.4,137.7z"/>
					<path class="st1" d="M94.2,137.7c1.7-0.4,2.1-1.1,2.7-1.7c-2,0.2-3.1,1.2-4.6,1.6C93.5,137.4,94.7,137.1,94.2,137.7z"/>
					<path class="st1" d="M136.6,108c-0.1,0.4-0.6,1.3-0.3,1.4c0.5-0.9,0.9-1.8,1.3-2.7C137.9,105.5,136.9,107.5,136.6,108z"/>
					<path class="st1" d="M139.1,97.4c0.5-2.3,1-0.9,1.1-2.1l-1-0.1L139.1,97.4z"/>
					<path class="st1" d="M134.1,97.2l-0.1,0.6C134.1,97.6,134.1,97.4,134.1,97.2L134.1,97.2z"/>
					<path class="st1" d="M142,86.4l0.9,1.7C142.8,86.1,141.9,86.1,142,86.4z"/>
					<path class="st1" d="M142.7,77.4l0.4,1.4c-0.2-1.5-0.4-2.9-0.7-4.3C142.5,75.5,142.7,76.4,142.7,77.4z"/>
					<path class="st1" d="M140.5,66.8l0.1-0.4c-0.3-0.9-0.6-1.9-1-2.8C140,64.6,140.3,65.7,140.5,66.8z"/>
					<path class="st1" d="M49.6,15.8c-0.1,0.5,1,0.3,2.2,0c1.2-0.3,2.7-0.7,3.3-0.8c-0.6-0.4-1.5-0.1-2.4,0.2
						C51.7,15.7,50.6,16.1,49.6,15.8z"/>
					<path class="st1" d="M10.6,83c-0.2-0.7-0.3-1.4-0.5-2.2C10,80,9.8,79.3,9.7,78.6c0,1.7,0.1,2,0.2,2.2
						C10.1,81,10.2,81.3,10.6,83z"/>
				</g>
			</g>
		</g>
	</g>
</g>
</svg>
